<svg xmlns="http://www.w3.org/2000/svg" width="810" viewBox="0 0 810 810" height="810" version="1.0"><defs><clipPath id="a"><path d="M 135.0625 135.0625 L 675.0625 135.0625 L 675.0625 675.0625 L 135.0625 675.0625 Z M 135.0625 135.0625"/></clipPath></defs><path fill="#081466" d="M 497.882812 564.785156 L 312.242188 564.785156 L 312.242188 245.742188 L 497.882812 245.742188 Z M 377.859375 228.910156 C 377.859375 227.769531 379.246094 226.839844 380.964844 226.839844 L 429.160156 226.839844 C 430.871094 226.839844 432.265625 227.769531 432.265625 228.910156 L 432.265625 228.953125 C 432.265625 230.097656 430.871094 231.027344 429.160156 231.027344 L 380.964844 231.027344 C 379.246094 231.027344 377.859375 230.097656 377.859375 228.953125 Z M 477.714844 210.523438 L 332.40625 210.523438 C 316.359375 210.523438 303.347656 224.195312 303.347656 241.0625 L 303.347656 569.0625 C 303.347656 585.929688 316.359375 599.601562 332.40625 599.601562 L 477.714844 599.601562 C 493.765625 599.601562 506.777344 585.929688 506.777344 569.0625 L 506.777344 241.0625 C 506.777344 224.195312 493.765625 210.523438 477.714844 210.523438"/><g clip-path="url(#a)"><path fill="#081466" d="M 405.0625 167.460938 C 372.976562 167.460938 341.863281 173.738281 312.582031 186.125 C 284.292969 198.09375 258.878906 215.226562 237.054688 237.054688 C 215.226562 258.878906 198.09375 284.292969 186.125 312.582031 C 173.742188 341.863281 167.460938 372.976562 167.460938 405.0625 C 167.460938 437.144531 173.742188 468.257812 186.125 497.539062 C 198.09375 525.832031 215.226562 551.246094 237.054688 573.070312 C 258.878906 594.898438 284.292969 612.027344 312.582031 623.996094 C 341.863281 636.382812 372.976562 642.660156 405.0625 642.660156 C 437.144531 642.660156 468.257812 636.382812 497.539062 623.996094 C 525.832031 612.027344 551.246094 594.898438 573.070312 573.070312 C 594.898438 551.246094 612.027344 525.832031 623.996094 497.539062 C 636.382812 468.257812 642.660156 437.144531 642.660156 405.0625 C 642.660156 372.976562 636.382812 341.863281 623.996094 312.582031 C 612.027344 284.292969 594.898438 258.878906 573.070312 237.054688 C 551.246094 215.226562 525.832031 198.09375 497.539062 186.125 C 468.257812 173.738281 437.144531 167.460938 405.0625 167.460938 Z M 405.0625 675.0625 C 368.621094 675.0625 333.257812 667.921875 299.960938 653.835938 C 267.808594 640.238281 238.929688 620.769531 214.140625 595.980469 C 189.351562 571.1875 169.886719 542.320312 156.285156 510.164062 C 142.203125 476.863281 135.0625 441.503906 135.0625 405.0625 C 135.0625 368.621094 142.203125 333.257812 156.285156 299.960938 C 169.886719 267.808594 189.351562 238.9375 214.140625 214.140625 C 238.929688 189.351562 267.808594 169.886719 299.960938 156.285156 C 333.257812 142.203125 368.621094 135.0625 405.0625 135.0625 C 441.503906 135.0625 476.863281 142.203125 510.164062 156.285156 C 542.320312 169.886719 571.1875 189.351562 595.980469 214.140625 C 620.769531 238.9375 640.238281 267.808594 653.835938 299.960938 C 667.921875 333.257812 675.0625 368.621094 675.0625 405.0625 C 675.0625 441.503906 667.921875 476.863281 653.835938 510.164062 C 640.238281 542.320312 620.769531 571.1875 595.980469 595.980469 C 571.1875 620.769531 542.320312 640.238281 510.164062 653.835938 C 476.863281 667.921875 441.503906 675.0625 405.0625 675.0625"/></g><path fill="#081466" d="M 560.914062 213.710938 L 205.429688 569.195312 C 214.378906 581.035156 224.335938 592.066406 235.179688 602.15625 L 593.871094 243.460938 C 583.78125 232.617188 572.753906 222.660156 560.914062 213.710938"/></svg>